<svg viewBox="0 0 512 512" xmlns="http://www.w3.org/2000/svg" fill-rule="evenodd" clip-rule="evenodd" stroke-linejoin="round" stroke-miterlimit="2"><path d="M393.69 24.82a139.966 139.966 0 0165.533 83.29 73.172 73.172 0 0112.63 5.774l1.493.973a73.588 73.588 0 0113.626 10.598l.043.065a73.347 73.347 0 0121.477 51.82 73.324 73.324 0 01-24.743 54.892 73.335 73.335 0 0124.743 54.914c0 23.401-11.225 45.462-30.15 59.239a73.308 73.308 0 0112.847 41.46c0 40.185-33.069 73.276-73.275 73.276a73.316 73.316 0 01-29.35-6.142c-9.883 29.976-38.065 50.371-69.62 50.371-22.84 0-44.402-10.684-58.266-28.83-11.809 5.84-25.131 9.106-39.211 9.106h-19.768c-10.079 0-18.384-8.306-18.384-18.384 0-10.079 8.305-18.384 18.384-18.384h19.768c28.505 0 51.972-23.466 51.972-51.972s-23.467-51.972-51.972-51.972H64.23c-10.078 0-18.383-8.305-18.383-18.384 0-10.078 8.305-18.384 18.383-18.384h157.236c28.462-.064 51.864-23.51 51.864-51.993 0-24.137-16.827-45.268-40.358-50.675-5.04-1.124-8.435-1.773-11.506-1.773H64.23c-10.078 0-18.383-8.305-18.383-18.384s8.305-18.384 18.383-18.384h157.236c28.505 0 51.972-23.466 51.972-51.972 0-28.505-23.467-51.972-51.972-51.972h-19.768c-10.079 0-18.384-8.305-18.384-18.384 0-10.078 8.305-18.383 18.384-18.383h19.768c8.716 0 17.389 1.254 25.737 3.785C291.066.856 347.861-1.155 393.69 24.82zm45.44 116.207a38.24 38.24 0 00-3.849-.195c-20.05 0-36.53 16.46-36.551 36.508 0 10.079-8.305 18.384-18.384 18.384s-18.384-8.305-18.384-18.384c0-20.027-16.48-36.508-36.508-36.508a36.594 36.594 0 00-21.498 7.008 88.795 88.795 0 01-28.7 37.74 88.698 88.698 0 0133.112 52.405 72.856 72.856 0 0119.206-2.552c34.972 0 65.316 25.024 71.978 59.369 3.46 16.113 17.259 27.814 33.566 28.765.433.022.844.043 1.255.108a36.052 36.052 0 006.985-.497l1.276-.303c16.892-3.504 29.112-18.513 29.112-35.751 0-20.027-16.48-36.508-36.508-36.508-10.079 0-18.384-8.305-18.384-18.384 0-10.078 8.305-18.384 18.384-18.384 20.027 0 36.508-16.48 36.508-36.508 0-9.667-3.85-18.946-10.663-25.78a36.671 36.671 0 00-19.94-10.1c-.671-.109-1.342-.26-2.012-.433zm2.64 219.135c-3.59.324-7.203.389-10.815.173l-1.73-.195c-32.182-2.66-59.001-26.3-65.684-57.898l-.065-.368c-3.266-17.15-18.405-29.673-35.86-29.673a36.525 36.525 0 00-20.156 6.077c-4.975 19.465-16.416 36.335-31.88 48.252 21.844 16.784 34.67 42.824 34.648 70.356 0 21.65-7.743 41.482-20.611 56.882a36.558 36.558 0 0029.305 14.728c20.05 0 36.53-16.502 36.53-36.53 0-3.157-.41-6.293-1.211-9.343a18.705 18.705 0 01-.627-4.78c0-10.078 8.283-18.383 18.383-18.383a18.38 18.38 0 0115.4 8.348c6.726 10.317 18.254 16.524 30.56 16.524 20.027 0 36.508-16.48 36.508-36.508 0-10.62-4.65-20.741-12.696-27.662zm-22.3-254.389c-16.869-39.211-56.426-64.083-99.077-62.288a103.836 103.836 0 00-36.551 8.327 88.648 88.648 0 0125.91 53.94c25.932-5.688 53.01 3.157 70.594 23.034a73.639 73.639 0 0139.125-23.013zm-286.159-9.797h81.105c10.079 0 18.384 8.305 18.384 18.384 0 10.078-8.305 18.384-18.384 18.384h-81.105c-10.079 0-18.384-8.306-18.384-18.384 0-10.079 8.305-18.384 18.384-18.384zM21.884 237.92H214.61c10.078 0 18.383 8.306 18.383 18.384 0 10.079-8.305 18.384-18.383 18.384H21.884c-10.079 0-18.384-8.305-18.384-18.384 0-10.078 8.305-18.384 18.384-18.384zM133.31 379.605h81.105c10.079 0 18.384 8.305 18.384 18.384s-8.305 18.384-18.384 18.384h-81.105c-10.079 0-18.384-8.305-18.384-18.384s8.305-18.384 18.384-18.384z"/></svg>